<svg width="4020" height="2686" viewBox="0 0 4020 2686" fill="none" xmlns="http://www.w3.org/2000/svg">
<path d="M839.119 1585.8L828.523 2685.02H1216.03V1589.2C1069.79 1581.26 917.476 1584.79 839.119 1585.8Z" fill="white"/>
<path d="M794.382 1584.75L847.709 690.429L838.989 1581.96C917.476 1575.46 1069.52 1556.58 1215.82 1512.19V0H667.449L590.706 1480.58L544.529 0H0V2685.02H303.049L299.212 690.429L402.772 2685.02H728.801L794.207 1585.84" fill="white"/>
<path d="M1673.22 2553.81C1673.22 2553.81 1691.19 1779.44 1556.54 1662.41C1519.21 1629.93 1436.98 1610.65 1339.56 1599.31L1254.27 2685.06H2178.68L2084.98 1492.53C2031.72 1516.88 1981.63 1547.63 1935.81 1584.1C1737.23 1746.17 1673.22 2553.81 1673.22 2553.81Z" fill="white"/>
<path d="M1519.43 1345.89C1712.03 1127.3 1762.52 388.47 1762.52 388.47C1762.52 388.47 1744.56 1162.84 1879.21 1279.87C1913.53 1309.74 1985.82 1328.45 2072.99 1340.04L1967.68 0H1465.23L1350.29 1462.48C1417.92 1431.57 1477.66 1393.28 1519.43 1345.89Z" fill="white"/>
<path d="M2899.77 1311.83C3011 1277.3 3076.19 1200.6 3076.19 1047.15V345.301C3076.19 111.321 2961.12 0.086731 2730.97 0.086731H2217.01V1353.04C2427.31 1364.64 2651.66 1352.34 2650.35 1357.79L2466.51 1383.95C2381.81 1395.47 2298.31 1414.54 2217.01 1440.94V2685.19H2734.81C2964.95 2685.19 3080.03 2573.96 3080.03 2339.98V1542.02C3080.03 1411.55 3022.51 1342.53 2899.77 1311.83ZM2608.27 1173.78V318.397H2661.95C2681.13 318.397 2688.81 326.028 2688.81 348.92V1146.88C2688.81 1162.23 2681.13 1173.74 2661.95 1173.74L2608.27 1173.78ZM2692.65 2339.85C2692.65 2359.03 2684.97 2366.7 2662.12 2366.7H2608.45V1469.11H2662.12C2685.15 1469.11 2692.65 1480.58 2692.65 1495.93V2339.85Z" fill="white"/>
<path d="M3808.83 0H3306.33L3095.37 2685.02H3432.91L3455.94 2243.92H3613.22L3636.2 2685.02H4019.91L3808.83 0ZM3471.29 1917.89L3532.64 763.335L3594.03 1917.89H3471.29Z" fill="white"/>
</svg>
